<svg width="241" height="44" viewBox="0 0 241 44" fill="none" xmlns="http://www.w3.org/2000/svg">
<path d="M240.049 3.0598H224.449V42.8998H221.389V3.0598H205.789V0.299805H240.049V3.0598Z" fill="white"/>
<path d="M182.097 43.1998C178.697 43.1998 175.857 42.5998 173.577 41.3998C171.297 40.1998 169.477 38.5798 168.117 36.5398C166.757 34.4598 165.777 32.1398 165.177 29.5798C164.577 27.0198 164.277 24.3998 164.277 21.7198V0.299805H167.337V21.7198C167.337 24.0398 167.577 26.3198 168.057 28.5598C168.537 30.7998 169.317 32.8198 170.397 34.6198C171.517 36.3798 173.017 37.7798 174.897 38.8198C176.817 39.8598 179.197 40.3798 182.037 40.3798C184.917 40.3798 187.297 39.8398 189.177 38.7598C191.097 37.6798 192.597 36.2598 193.677 34.4998C194.797 32.6998 195.577 30.6998 196.017 28.4998C196.497 26.2598 196.737 23.9998 196.737 21.7198V0.299805H199.797V21.7198C199.797 24.5598 199.477 27.2798 198.837 29.8798C198.237 32.4398 197.237 34.7198 195.837 36.7198C194.437 38.7198 192.617 40.2998 190.377 41.4598C188.137 42.6198 185.377 43.1998 182.097 43.1998Z" fill="white"/>
<path d="M136.742 43.2C133.782 43.2 131.082 42.6 128.642 41.4C126.202 40.16 124.102 38.52 122.342 36.48C120.582 34.44 119.222 32.14 118.262 29.58C117.302 26.98 116.822 24.32 116.822 21.6C116.822 18.76 117.322 16.06 118.322 13.5C119.322 10.9 120.722 8.6 122.522 6.6C124.362 4.56 126.482 2.96 128.882 1.8C131.322 0.599998 133.962 0 136.802 0C139.802 0 142.502 0.62 144.902 1.86C147.342 3.1 149.442 4.76 151.202 6.84C152.962 8.92 154.322 11.24 155.282 13.8C156.242 16.36 156.722 18.96 156.722 21.6C156.722 24.48 156.222 27.22 155.222 29.82C154.222 32.38 152.802 34.68 150.962 36.72C149.162 38.72 147.042 40.3 144.602 41.46C142.202 42.62 139.582 43.2 136.742 43.2ZM119.882 21.6C119.882 24.04 120.302 26.38 121.142 28.62C121.982 30.86 123.142 32.86 124.622 34.62C126.142 36.38 127.922 37.78 129.962 38.82C132.042 39.86 134.322 40.38 136.802 40.38C139.322 40.38 141.622 39.84 143.702 38.76C145.782 37.68 147.562 36.24 149.042 34.44C150.522 32.64 151.642 30.64 152.402 28.44C153.202 26.2 153.602 23.92 153.602 21.6C153.602 19.16 153.182 16.82 152.342 14.58C151.542 12.34 150.382 10.34 148.862 8.58C147.342 6.82 145.542 5.42 143.462 4.38C141.422 3.34 139.202 2.82 136.802 2.82C134.242 2.82 131.922 3.36 129.842 4.44C127.762 5.52 125.982 6.96 124.502 8.76C123.062 10.56 121.922 12.58 121.082 14.82C120.282 17.02 119.882 19.28 119.882 21.6Z" fill="white"/>
<path d="M85.0765 0.299805L94.2565 19.1398L103.556 0.299805H114.296L99.1165 28.3798V42.8998H89.3365V28.2598L74.3965 0.299805H85.0765Z" fill="#E6333E"/>
<path d="M40.625 42.8998V0.299805H59.825C61.825 0.299805 63.665 0.719806 65.345 1.55981C67.065 2.35981 68.545 3.45981 69.785 4.85981C71.025 6.21981 71.985 7.75981 72.665 9.4798C73.385 11.1998 73.745 12.9398 73.745 14.6998C73.745 16.4598 73.465 18.1398 72.905 19.7398C72.345 21.2998 71.545 22.7198 70.505 23.9998C69.465 25.2398 68.225 26.2598 66.785 27.0598L76.145 42.8998H65.285L57.125 29.1598H50.465V42.8998H40.625ZM50.465 20.5798H59.465C60.265 20.5798 60.965 20.3398 61.565 19.8598C62.205 19.3398 62.725 18.6398 63.125 17.7598C63.525 16.8798 63.725 15.8598 63.725 14.6998C63.725 13.5398 63.485 12.5398 63.005 11.6998C62.565 10.8198 62.005 10.1398 61.325 9.65981C60.645 9.1798 59.925 8.9398 59.165 8.9398H50.465V20.5798Z" fill="#E6333E"/>
<path d="M35.82 8.9398H22.86V42.8998H13.02V8.9398H0V0.299805H35.82V8.9398Z" fill="#E6333E"/>
</svg>
